<svg width="15" height="18" viewBox="0 0 15 18" fill="none" xmlns="http://www.w3.org/2000/svg">
<path d="M9.65879 6.53874L9.38618 13.9232M5.61382 13.9232L5.34121 6.53874M13.1948 3.90497C13.4642 3.94763 13.7321 3.99276 14 4.04117M13.1948 3.90497L12.3533 15.2958C12.319 15.7596 12.1178 16.1928 11.79 16.5087C11.4622 16.8247 11.032 17.0001 10.5853 17H4.41467C3.96802 17.0001 3.53778 16.8247 3.20998 16.5087C2.88219 16.1928 2.68101 15.7596 2.64667 15.2958L1.80521 3.90497M13.1948 3.90497C12.2855 3.7618 11.3715 3.65315 10.4545 3.57923M1.80521 3.90497C1.53576 3.94681 1.26788 3.99194 1 4.04035M1.80521 3.90497C2.71453 3.76181 3.62855 3.65316 4.54545 3.57923M10.4545 3.57923V2.82766C10.4545 1.85948 9.73758 1.05212 8.80788 1.02176C7.93618 0.992747 7.06382 0.992747 6.19212 1.02176C5.26242 1.05212 4.54545 1.8603 4.54545 2.82766V3.57923M10.4545 3.57923C8.48778 3.42094 6.51222 3.42094 4.54545 3.57923" stroke="#204E9D" stroke-width="1.5" stroke-linecap="round" stroke-linejoin="round"/>
</svg>
